<?xml version="1.0" standalone="no"?>
<!DOCTYPE svg PUBLIC "-//W3C//DTD SVG 20010904//EN"
 "http://www.w3.org/TR/2001/REC-SVG-20010904/DTD/svg10.dtd">
<svg version="1.0" xmlns="http://www.w3.org/2000/svg"
 width="512.000000pt" height="512.000000pt" viewBox="0 0 512.000000 512.000000"
 preserveAspectRatio="xMidYMid meet">

<g transform="translate(0.000000,512.000000) scale(0.100000,-0.100000)"
fill="#000000" stroke="none">
<path d="M2380 5114 c-19 -2 -78 -9 -130 -14 -637 -69 -1268 -419 -1681 -933
-302 -374 -486 -809 -551 -1297 -16 -123 -16 -497 0 -620 78 -588 330 -1099
743 -1507 183 -180 363 -315 574 -430 839 -455 1858 -409 2647 119 200 134
427 343 580 533 591 740 723 1764 339 2629 -228 513 -612 932 -1108 1210 -263
147 -597 255 -913 296 -88 12 -438 21 -500 14z m510 -339 c221 -34 485 -117
675 -213 477 -239 871 -666 1069 -1159 276 -689 199 -1469 -207 -2078 -448
-674 -1227 -1058 -2023 -997 -544 41 -1016 253 -1408 632 -897 867 -897 2332
0 3200 390 378 825 575 1399 634 81 8 393 -4 495 -19z"/>
<path d="M3460 3669 c-14 -5 -222 -206 -462 -447 l-438 -437 -422 421 c-233
232 -433 427 -445 433 -12 6 -43 11 -70 11 -90 0 -153 -63 -153 -153 0 -27 5
-58 11 -70 6 -12 201 -212 432 -444 l422 -423 -442 -442 c-478 -480 -465 -464
-448 -555 9 -49 69 -109 118 -118 91 -17 75 -30 554 448 l443 442 427 -427
c362 -361 434 -428 468 -437 114 -31 225 80 194 194 -9 34 -76 106 -437 468
l-427 427 442 443 c477 477 465 463 449 552 -17 91 -127 149 -216 114z"/>
</g>
</svg>
